<svg xmlns="http://www.w3.org/2000/svg" viewBox="0 0 1443.8 242.2"><defs><style>.a{fill:#fff;}</style></defs><title>HF_logo_white</title><polygon class="a" points="1090.8 237.9 1135.5 237.9 1097.5 174.7 1055.7 170.9 1090.8 237.9"/><path class="a" d="M691.2,137.8V237.9h61.1a120.7,120.7,0,0,0,36.2-5.5,93.4,93.4,0,0,0,30.4-16.2,77.5,77.5,0,0,0,20.9-26.4c5.2-10.4,7.8-22.6,7.8-36.3V152l-38.9-3.6c.1,1.1.1,2.1.1,3.2,0,9.6-1.5,17.7-4.7,24.3A41.7,41.7,0,0,1,791.3,192a49.7,49.7,0,0,1-19.2,8.7,102.8,102.8,0,0,1-24.1,2.7H728.6V141.2Z" transform="translate(0 0)"/><polygon class="a" points="613.2 237.9 662 237.9 662 135.2 624.4 131.7 624.2 186.2 588.9 128.5 543.6 124.4 613.2 237.9"/><path class="a" d="M329.2,104.9v67.5a79.9,79.9,0,0,0,4.6,27.8,60.2,60.2,0,0,0,13.5,22.1,61.8,61.8,0,0,0,22.4,14.6c8.9,3.5,19.3,5.3,31.1,5.3s22-1.8,30.9-5.3a61.8,61.8,0,0,0,22.4-14.6,60.2,60.2,0,0,0,13.5-22.1,79.9,79.9,0,0,0,4.6-27.8V117.9l-37.4-3.4V171a40.3,40.3,0,0,1-2.5,14.6,34.6,34.6,0,0,1-7,11.6,34.2,34.2,0,0,1-38.2,7.7,30.4,30.4,0,0,1-10.9-7.7,33.3,33.3,0,0,1-7.1-11.6,40.3,40.3,0,0,1-2.5-14.6V108.3Z" transform="translate(0 0)"/><polygon class="a" points="37.4 171.8 108 171.8 108 137.3 37.4 137.3 37.4 102.7 113.8 102.7 113.8 85.3 0 75 0 237.9 37.4 237.9 37.4 171.8"/><path class="a" d="M1221.3,185.9a17.5,17.5,0,0,1,.4,4,13.6,13.6,0,0,1-2.2,7.9,20.1,20.1,0,0,1-6,5.6,31.2,31.2,0,0,1-8.4,3.2,42,42,0,0,1-9.2,1.1,41,41,0,0,1-18.1-4.2,39.1,39.1,0,0,1-14.5-11.9l-26.6,29.3a77.7,77.7,0,0,0,26.4,16.3,91.8,91.8,0,0,0,30.6,5,88.8,88.8,0,0,0,25-3.4,59.3,59.3,0,0,0,20.9-10.3,48.8,48.8,0,0,0,14.2-17.5,50.9,50.9,0,0,0,5.2-21.6Z" transform="translate(0 0)"/><path class="a" d="M133,116.1a96.6,96.6,0,0,0-6.8,36.9,96.6,96.6,0,0,0,6.8,36.9,81.1,81.1,0,0,0,19,28.2A85.3,85.3,0,0,0,181,236a111.4,111.4,0,0,0,73.3,0,84.3,84.3,0,0,0,29-17.9,79.8,79.8,0,0,0,19-28.2q6.9-16.5,6.9-36.9t-6.9-36.9a82.3,82.3,0,0,0-7.6-14.4l-143.4-13A80.4,80.4,0,0,0,133,116.1Zm35.7,15.1a51.2,51.2,0,0,1,10.6-17.4A49.8,49.8,0,0,1,196,102.5a54.2,54.2,0,0,1,21.7-4.1,53.3,53.3,0,0,1,21.6,4.1A48.8,48.8,0,0,1,256,113.8a49.7,49.7,0,0,1,10.6,17.4,65,65,0,0,1,0,43.8A49.7,49.7,0,0,1,256,192.2a47.7,47.7,0,0,1-16.7,11.4,55.1,55.1,0,0,1-21.6,4.1,55.9,55.9,0,0,1-21.7-4.1,48.7,48.7,0,0,1-16.7-11.4A51.3,51.3,0,0,1,168.7,175,66.7,66.7,0,0,1,168.7,131.2Z" transform="translate(0 0)"/><polygon class="a" points="1036.9 169.2 999.5 165.8 999.5 237.9 1036.9 237.9 1036.9 169.2"/><polygon class="a" points="539.1 124 501.3 120.5 501.3 237.9 538.7 237.9 539.1 124"/><polygon class="a" points="859.4 237.9 978.9 237.9 978.9 203.4 896.7 203.4 896.7 168.9 970.3 168.9 970.3 163.2 859.4 153.1 859.4 237.9"/><polygon class="a" points="969.7 105 969.7 70.5 896.2 70.5 896.2 38.8 974.1 38.8 974.1 4.3 858.9 4.3 858.9 132.9 896.2 136.3 896.2 105 969.7 105"/><path class="a" d="M1092.5,102c11.9-2.3,21-7.6,27.3-16s9.3-18.5,9.3-30.5c0-9.9-1.7-18.2-5.1-24.8a41.9,41.9,0,0,0-13.9-15.8,55.6,55.6,0,0,0-20.4-8.4A113.7,113.7,0,0,0,1065.2,4H999.5V145.6l37.4,3.4V105.8h18.5l24.5,47.1,45.7,4.1ZM1087,66.4a17,17,0,0,1-7.6,5.6,34.8,34.8,0,0,1-10.2,2.2l-10.6.3h-22.1V36H1061a73.3,73.3,0,0,1,10.3.7,31.7,31.7,0,0,1,9.3,2.7,17.3,17.3,0,0,1,6.7,5.9c1.8,2.6,2.7,6,2.7,10.3S1089,63.8,1087,66.4Z" transform="translate(0 0)"/><polygon class="a" points="767.9 83.2 843.4 4.3 794.5 4.3 728.6 74.8 728.6 4.3 691.3 4.3 691.3 117.7 728.6 121 728.6 93.5 754.2 123.4 808.6 128.3 767.9 83.2"/><path class="a" d="M1239.4,164.6a51,51,0,0,0,14.3-17.5c3.5-7,5.2-15.2,5.2-24.7s-1.9-17.8-5.7-23.7a45.3,45.3,0,0,0-14.5-14.1,73.5,73.5,0,0,0-18.8-8.2c-6.7-1.9-13-3.8-18.8-5.7a57.6,57.6,0,0,1-14.5-7q-5.7-4.1-5.7-11.7a13.9,13.9,0,0,1,2.4-8.2,17.2,17.2,0,0,1,6.2-5.4,35.6,35.6,0,0,1,8.1-3,41.4,41.4,0,0,1,8.4-.9,45,45,0,0,1,14.7,2.7,27.8,27.8,0,0,1,12.4,8.5l25.6-28A64.3,64.3,0,0,0,1234.5,4a95.4,95.4,0,0,0-27.8-4,85.8,85.8,0,0,0-24.2,3.4,61.3,61.3,0,0,0-20.7,10.5,51.2,51.2,0,0,0-14.4,17.2,52.4,52.4,0,0,0-5.3,24c0,9.4,1.9,17,5.8,22.8a46.8,46.8,0,0,0,14.8,13.9,81.8,81.8,0,0,0,19.1,8.3q10.4,3.2,19.2,6.3a53.2,53.2,0,0,1,14.7,7.5,14.5,14.5,0,0,1,5.9,12.1,13.6,13.6,0,0,1-2.3,7.9,16.7,16.7,0,0,1-6,5.5,28.3,28.3,0,0,1-8.4,3.3,42,42,0,0,1-9.2,1.1,41.4,41.4,0,0,1-18.1-4.2,39.9,39.9,0,0,1-14.5-11.9l-26.6,29.2,1.4,1.3,98.1,8.9Z" transform="translate(0 0)"/><path class="a" d="M1441.7,86.5H1400L1383.5,109l-21.8-23.2a89.3,89.3,0,0,0,12.1-7.8,59.1,59.1,0,0,0,9.9-10.1,46.8,46.8,0,0,0,6.8-12.1,38,38,0,0,0,2.6-14.1,39.9,39.9,0,0,0-4.1-18.6,39.3,39.3,0,0,0-10.9-13,46.8,46.8,0,0,0-15.7-7.6A67,67,0,0,0,1343.7,0a80.3,80.3,0,0,0-19.6,2.4,47.8,47.8,0,0,0-17,7.6,39.3,39.3,0,0,0-11.9,13.4c-2.9,5.5-4.4,12-4.4,19.7a43.9,43.9,0,0,0,1.3,11.3,46,46,0,0,0,3.8,9.5,51.8,51.8,0,0,0,6,8.7l7.6,8.6a60.9,60.9,0,0,0-14.2,7.1A50.9,50.9,0,0,0,1284,98.7a45.3,45.3,0,0,0-7.7,13.3,44.4,44.4,0,0,0-2.8,15.5,47,47,0,0,0,5.1,22.3,46.1,46.1,0,0,0,13.5,15.9,61,61,0,0,0,19.3,9.5,82.8,82.8,0,0,0,22.3,3.1,72.7,72.7,0,0,0,27.1-4.8c8.1-3.2,15.6-8.4,22.7-15.6l14.1,16.1h46.2L1406,133.9ZM1332.3,33.3a16.8,16.8,0,0,1,11.8-4.3,18.2,18.2,0,0,1,11.8,3.9c3.3,2.6,4.9,6.4,4.9,11.4a12.7,12.7,0,0,1-1.9,6.8,27.5,27.5,0,0,1-4.8,6,51,51,0,0,1-6.2,5.1c-2.2,1.5-4.3,2.8-6.2,3.9l-4.7-4.3a31.7,31.7,0,0,1-4.5-5.2,28.2,28.2,0,0,1-3.5-5.7,13.4,13.4,0,0,1-1.5-6.1C1327.5,40,1329.1,36.1,1332.3,33.3Zm17.5,109.1a28.1,28.1,0,0,1-14.5,3.6,25,25,0,0,1-8.5-1.5,27.3,27.3,0,0,1-7.3-4.2,19.9,19.9,0,0,1-5-6.5,18.8,18.8,0,0,1-2-8.6,20,20,0,0,1,1.7-8.4,21.8,21.8,0,0,1,4.5-6.4,38.7,38.7,0,0,1,6.2-5l7-4.4,30,32.6A78.8,78.8,0,0,1,1349.8,142.4Z" transform="translate(0 0)"/><path class="a" d="M560.8,89.1a62,62,0,0,1,3.8-21.8,52.1,52.1,0,0,1,10.3-17.4,47.6,47.6,0,0,1,15.5-11.4,46.9,46.9,0,0,1,19.5-4,44.7,44.7,0,0,1,18.6,3.6A36.1,36.1,0,0,1,642,48.4l28.8-23.5a58,58,0,0,0-12.5-11.8,64.8,64.8,0,0,0-14.5-7.6,82.7,82.7,0,0,0-15.3-4.2,87.8,87.8,0,0,0-15-1.3,103.4,103.4,0,0,0-36.6,6.2,84.1,84.1,0,0,0-29,17.8,81.6,81.6,0,0,0-19,28.2Q522,68.7,522,89.1a111.4,111.4,0,0,0,.8,13.2l40.1,3.7A65.8,65.8,0,0,1,560.8,89.1Z" transform="translate(0 0)"/><polygon class="a" points="445.7 4.3 414.8 4.3 378.1 89.2 414 92.5 429.1 53.7 445.6 95.3 486.9 99.1 445.7 4.3"/><polygon class="a" points="182.5 4.3 182.5 71.5 329.8 84.8 329.8 4.3 292.4 4.3 292.4 67.6 219.9 67.6 219.9 4.3 182.5 4.3"/></svg>